<?xml version="1.0" standalone="no"?>
<!DOCTYPE svg PUBLIC "-//W3C//DTD SVG 20010904//EN"
 "http://www.w3.org/TR/2001/REC-SVG-20010904/DTD/svg10.dtd">
<svg version="1.0" xmlns="http://www.w3.org/2000/svg"
 width="640.000000pt" height="640.000000pt" viewBox="0 0 640.000000 640.000000"
 preserveAspectRatio="xMidYMid meet">
<metadata>
Created by potrace 1.15, written by Peter Selinger 2001-2017
</metadata>
<g transform="translate(0.000000,640.000000) scale(0.100000,-0.100000)"
fill="#000000" stroke="none">
<path d="M0 3200 l0 -3200 2755 0 2755 0 -10 26 c-6 14 -10 38 -10 54 0 16 -5
32 -11 35 -5 4 -8 12 -6 18 2 7 -2 29 -9 51 -8 21 -12 42 -9 46 3 5 1 11 -5
15 -5 3 -10 21 -10 40 0 18 -6 46 -14 62 -13 25 -69 246 -72 283 0 9 -6 25
-12 37 -6 11 -9 23 -6 26 4 3 1 28 -6 55 -6 27 -15 74 -20 103 -5 30 -14 81
-20 114 -6 33 -12 69 -14 80 -1 11 -8 33 -14 48 -7 16 -12 44 -12 63 0 19 -4
42 -10 52 -5 9 -17 54 -26 98 -14 64 -21 81 -33 76 -12 -4 -12 -1 2 18 9 14
17 31 16 40 0 13 -1 13 -6 0 -3 -8 -15 -26 -26 -40 -11 -14 -18 -18 -15 -10 4
8 9 24 13 35 6 18 5 18 -5 3 -10 -17 -37 -27 -27 -11 3 5 8 26 11 47 4 22 8
42 10 44 7 6 -16 66 -32 85 -10 11 -11 17 -4 17 7 0 12 10 12 23 1 35 16 2 31
-68 l13 -60 9 35 c5 19 9 53 8 75 0 31 2 37 10 25 9 -13 10 -13 6 0 -2 8 -10
15 -18 14 -11 -1 -14 19 -13 98 1 91 0 98 -18 93 -14 -5 -18 -1 -18 15 0 12 5
31 11 42 9 17 8 24 -5 33 -18 14 -22 88 -7 128 8 19 6 27 -5 31 -8 3 -14 16
-14 28 l0 23 20 -25 c22 -29 38 -22 19 8 -10 16 -10 24 -1 34 9 11 9 17 -1 27
-16 17 19 44 46 35 11 -4 23 0 28 7 8 12 10 12 18 0 7 -11 9 -11 13 0 7 20
-20 69 -37 69 -8 0 -15 7 -15 15 0 10 -10 15 -26 15 -23 0 -25 3 -19 22 4 13
9 38 12 56 4 26 2 32 -13 32 -16 0 -17 2 -4 10 8 5 15 14 15 20 0 6 7 15 15
20 12 8 12 10 -2 15 -13 5 -16 15 -12 43 3 21 2 52 -1 70 -9 46 -31 36 -27
-13 3 -26 0 -35 -8 -30 -6 4 -9 13 -6 21 3 7 1 16 -4 19 -6 4 -10 -2 -10 -12
0 -11 -3 -14 -8 -7 -4 6 -15 13 -24 17 -10 3 -18 15 -18 25 0 11 -7 25 -15 32
-17 14 -20 40 -5 40 13 0 13 37 1 44 -5 4 -12 0 -14 -6 -3 -7 -6 -4 -6 6 -1
20 -1 20 -17 0 -15 -18 -15 -18 -5 3 6 12 11 32 12 45 0 22 1 22 9 3 6 -13 7
-4 3 26 l-5 46 58 34 c59 33 222 185 211 196 -3 3 -13 -2 -22 -11 -21 -20 -35
-21 -35 -1 0 8 -4 15 -10 15 -5 0 -10 -4 -10 -10 0 -5 -4 -10 -10 -10 -5 0
-10 13 -10 28 0 20 7 33 25 42 29 16 65 68 65 96 0 11 9 33 20 49 32 48 24 60
-17 25 -34 -30 -37 -31 -46 -14 -13 23 -48 53 -62 54 -5 0 -28 16 -49 35 -22
19 -58 44 -80 55 -23 11 -47 28 -53 39 -24 38 -90 58 -180 55 -47 -2 -83 1
-83 7 0 5 5 9 10 9 6 0 29 19 52 42 38 39 42 48 43 95 0 34 6 58 18 71 9 10
17 23 17 28 0 5 -5 2 -10 -6 -8 -12 -10 -12 -10 -1 0 19 41 53 58 46 12 -4
100 12 111 21 5 4 -22 30 -39 37 -12 4 -12 6 2 6 9 1 18 6 20 11 2 6 21 12 43
15 104 12 134 19 181 41 28 13 58 24 66 24 9 0 21 6 27 14 12 15 5 46 -11 46
-5 0 -7 4 -4 8 6 10 -138 146 -196 185 -42 28 -64 35 -53 17 7 -11 -2 -12 -29
-1 -18 7 -18 8 -1 25 10 9 16 18 14 19 -74 41 -90 44 -129 31 -12 -4 -9 -9 10
-20 15 -10 17 -13 5 -8 -23 8 -48 9 -90 3 -29 -4 -30 -3 -31 36 -1 22 -3 45
-4 50 -1 6 -2 18 -1 27 3 21 -21 27 -111 32 -77 3 -87 8 -64 31 17 17 22 30 8
21 -12 -7 -26 5 -60 52 -30 42 -31 43 -29 15 1 -19 -2 -27 -12 -25 -9 2 -11
-3 -7 -14 8 -20 -19 -64 -39 -64 -8 0 -14 -3 -14 -7 3 -20 -2 -24 -15 -14 -15
13 -49 4 -40 -10 3 -5 2 -14 -2 -21 -5 -8 -12 -3 -19 16 -9 22 -13 25 -18 12
-4 -9 -2 -16 3 -16 6 0 10 -6 10 -14 0 -9 -18 -16 -51 -20 -33 -5 -49 -11 -46
-19 2 -7 11 -11 21 -9 9 2 16 -2 16 -8 0 -15 60 -13 61 3 0 6 5 1 10 -13 7
-17 12 -21 18 -12 6 9 13 8 29 -6 12 -11 22 -21 22 -23 0 -2 -20 -4 -44 -4
-25 0 -48 -3 -51 -7 -4 -3 -1 -26 7 -49 12 -44 12 -44 16 -12 3 30 5 31 45 28
23 -1 50 -3 60 -4 9 0 17 -9 18 -18 0 -17 1 -17 11 -2 11 15 13 15 29 -5 l18
-21 -6 23 c-4 17 -2 21 10 17 18 -7 11 -44 -9 -52 -8 -3 -12 -9 -9 -14 3 -4
12 -6 20 -2 8 3 15 0 15 -6 0 -6 7 -11 15 -11 11 0 15 -11 16 -37 0 -21 2 -49
4 -63 10 -81 13 -190 5 -190 -6 0 -10 4 -10 9 0 6 -11 22 -25 37 -23 25 -25
25 -25 7 0 -12 -7 -24 -16 -27 -13 -5 -14 -2 -8 11 16 38 15 98 -4 119 -21 25
-68 39 -77 23 -4 -6 -13 -8 -21 -5 -7 3 -16 1 -19 -4 -3 -5 -12 -7 -20 -3 -8
3 -15 0 -15 -7 0 -9 -5 -8 -18 3 -17 16 -45 18 -58 4 -4 -4 -18 -7 -30 -7 -38
0 -36 41 3 63 18 9 39 17 47 17 7 0 19 7 26 15 7 9 19 14 27 11 7 -3 13 -1 13
4 0 6 -15 10 -33 10 -18 0 -38 5 -44 11 -7 7 -13 7 -17 0 -4 -5 -13 -8 -21 -4
-8 3 -15 1 -15 -5 0 -5 -20 -13 -44 -16 -50 -8 -68 -24 -68 -61 -1 -25 -11
-38 -35 -41 -10 -2 -13 22 -14 89 -1 51 -4 79 -6 62 -6 -54 -13 -76 -22 -71
-5 3 -7 18 -5 33 2 16 5 71 5 123 l2 95 -26 -2 c-21 -1 -27 3 -27 18 0 10 -4
19 -10 19 -5 0 -10 4 -10 10 0 5 6 7 14 4 9 -4 16 3 19 18 3 15 5 9 6 -16 1
-29 4 -37 16 -33 8 4 18 1 22 -6 5 -7 10 9 14 38 l6 50 1 -46 2 -47 46 -7 c25
-3 49 -4 52 0 4 4 6 32 4 63 -4 99 3 118 51 137 23 9 53 18 66 20 13 1 27 8
31 15 6 9 9 9 13 -1 4 -10 6 -10 6 2 1 9 13 24 27 34 25 16 25 16 15 -3 -6
-11 -7 -23 -3 -27 4 -5 0 -6 -9 -3 -13 5 -15 1 -10 -20 4 -21 6 -23 9 -8 3 15
6 16 13 5 6 -11 9 -8 9 9 0 12 4 22 9 22 5 0 7 -10 5 -22 -4 -21 -4 -22 5 -3
14 29 13 58 -1 49 -7 -4 -8 -3 -4 4 4 6 13 9 21 5 10 -3 15 1 15 12 0 14 6 16
38 10 20 -3 41 -11 46 -16 6 -5 21 1 38 18 27 25 28 26 28 6 0 -16 5 -20 20
-16 11 3 27 0 35 -7 9 -7 19 -10 22 -6 4 4 1 11 -6 15 -9 6 -4 11 18 19 42 15
39 22 -6 15 -33 -6 -36 -4 -28 13 4 10 10 34 13 52 2 17 8 32 13 32 16 0 10
44 -11 83 -19 36 -20 38 -3 64 10 15 12 24 6 20 -23 -15 -14 39 9 59 13 10 20
15 16 10 -4 -5 -3 -16 4 -23 9 -11 9 -16 -1 -22 -10 -6 -9 -10 3 -14 17 -7 26
14 22 53 -2 18 -9 25 -24 24 -17 0 -19 3 -11 12 8 10 4 22 -15 47 -31 41 -31
41 -5 84 16 26 24 31 30 21 5 -7 9 -10 9 -6 0 4 18 -2 41 -14 30 -15 43 -18
52 -9 8 8 7 11 -6 11 -10 0 -20 7 -24 16 -4 11 -8 12 -13 4 -5 -8 -11 -7 -22
4 -9 8 -18 12 -22 9 -3 -4 -6 -1 -6 5 0 15 26 16 35 2 10 -16 45 8 38 26 -5
13 -7 13 -14 2 -7 -10 -9 -10 -9 2 1 8 7 24 15 34 15 20 15 20 16 0 1 -10 5 1
10 26 7 36 5 57 -11 103 -11 31 -20 64 -20 72 0 9 -10 19 -23 24 -17 7 -28 25
-42 70 -10 34 -24 66 -32 72 -7 6 -13 18 -13 25 0 8 -7 14 -15 14 -17 0 -20
-25 -5 -35 13 -8 13 -45 -1 -45 -5 0 -7 -4 -4 -10 3 -5 2 -10 -3 -10 -5 0 -12
25 -15 55 -4 43 -11 60 -34 80 -15 13 -22 25 -15 25 7 0 15 -7 18 -15 4 -8 12
-15 20 -15 11 0 11 5 2 25 -6 13 -15 22 -19 19 -5 -3 -9 3 -9 13 0 14 -2 15
-9 4 -6 -10 -11 -5 -16 18 -4 18 -20 44 -36 58 -16 15 -29 33 -29 41 0 8 -6
12 -15 8 -8 -3 -15 -1 -15 4 0 6 -7 10 -15 10 -18 0 -18 -5 -4 -32 6 -11 8
-22 5 -25 -2 -3 -12 11 -20 32 -9 20 -25 39 -36 42 -11 3 -20 12 -20 19 0 8
-7 14 -15 14 -7 0 -18 7 -23 16 -5 9 -12 15 -15 15 -19 -3 -25 2 -40 34 -9 19
-21 35 -27 35 -5 0 -10 10 -11 23 0 20 -1 20 -8 3 -6 -15 -10 -16 -16 -7 -6
11 -9 11 -16 0 -7 -11 -9 -11 -9 -1 0 7 -5 10 -11 6 -6 -3 -15 -1 -19 7 -7 10
-16 10 -52 -1 -24 -7 -49 -18 -56 -23 -9 -7 -11 -6 -6 7 9 24 -24 21 -88 -9
-29 -14 -62 -25 -74 -25 -22 0 -82 -61 -76 -78 1 -5 -2 -13 -7 -17 -7 -4 -8 0
-4 11 5 14 3 16 -11 11 -9 -4 -15 -3 -12 2 3 5 -1 14 -9 21 -13 11 -14 10 -9
-5 5 -12 4 -16 -4 -11 -7 4 -9 -2 -6 -18 2 -14 0 -28 -6 -31 -6 -4 -7 -11 -4
-17 4 -6 0 -14 -7 -19 -12 -7 -11 -9 1 -9 24 0 43 -17 35 -30 -6 -9 -9 -9 -15
1 -10 15 -40 21 -40 8 0 -5 -9 -18 -20 -29 -11 -11 -15 -20 -10 -20 19 0 10
-19 -13 -26 -37 -11 -80 -46 -68 -54 18 -11 -4 -56 -31 -65 -19 -6 -20 -8 -6
-12 17 -4 14 -32 -6 -45 -5 -3 -11 -17 -13 -30 -2 -13 -10 -28 -18 -34 -20
-15 -19 -24 3 -25 13 0 14 -2 2 -6 -8 -4 -21 -13 -28 -22 -11 -13 -11 -12 -2
7 10 21 9 23 -7 20 -10 -2 -18 -12 -18 -23 0 -22 25 -25 79 -11 26 6 28 5 17
-8 -8 -9 -31 -21 -53 -28 l-39 -11 3 -56 c3 -53 18 -88 32 -74 3 4 6 1 6 -5 0
-7 -4 -12 -10 -12 -5 0 -10 -10 -10 -22 0 -18 -2 -20 -9 -9 -8 12 -12 12 -25
2 -9 -8 -16 -19 -16 -27 0 -22 21 -27 36 -8 13 17 14 13 9 -40 -4 -43 -2 -62
7 -68 10 -6 8 -11 -7 -20 -11 -7 -24 -13 -30 -13 -15 0 -18 -35 -3 -35 8 0 23
-7 34 -15 18 -15 17 -16 -15 -9 -23 4 -31 3 -27 -5 4 -6 2 -11 -5 -11 -25 0 7
-21 37 -24 23 -3 28 -8 27 -25 -2 -12 1 -20 6 -16 10 5 57 -53 49 -60 -2 -3
-19 0 -38 5 -54 16 -59 2 -27 -74 9 -21 17 -44 17 -52 0 -7 4 -16 10 -19 6 -3
10 1 10 10 0 26 29 13 52 -23 16 -25 17 -31 5 -26 -9 3 -22 2 -29 -2 -7 -5
-19 -9 -27 -9 -17 0 -28 -25 -11 -25 7 0 10 -7 6 -15 -10 -26 57 -85 97 -85
50 0 63 -19 29 -42 -16 -10 -21 -18 -12 -18 10 0 15 -10 15 -30 1 -35 -1 -36
-22 -14 -26 25 -113 4 -113 -28 0 -5 4 -7 8 -4 5 3 9 -33 10 -81 0 -47 3 -87
6 -90 3 -3 9 10 15 28 l9 34 1 -47 c1 -27 6 -48 11 -48 6 0 8 11 4 25 -3 14
-2 25 4 25 10 0 22 -55 22 -107 0 -23 -5 -33 -16 -33 -12 0 -14 7 -9 30 4 19
3 30 -4 30 -6 0 -11 -13 -11 -30 0 -16 -4 -30 -9 -30 -12 0 -22 27 -15 43 2 7
-4 23 -15 35 -14 17 -18 34 -15 72 3 45 -8 68 -18 39 -2 -7 -11 -5 -23 7 -18
18 -19 18 -12 1 4 -10 7 -21 7 -23 0 -2 7 -4 15 -4 8 0 15 -7 15 -15 0 -8 -4
-15 -10 -15 -5 0 -10 4 -10 8 0 9 -41 8 -57 -1 -6 -4 -13 -1 -16 5 -2 7 -8 9
-13 5 -5 -5 4 -20 21 -35 56 -49 89 -126 101 -238 5 -52 4 -61 -10 -61 -18 0
-21 13 -6 22 5 3 10 12 10 18 0 8 -3 7 -9 -2 -7 -10 -11 -5 -16 17 -7 35 -64
153 -64 136 -1 -6 6 -33 14 -60 17 -56 19 -94 6 -94 -6 0 -9 -9 -8 -21 1 -14
23 -35 67 -63 36 -23 89 -61 119 -83 72 -55 120 -61 223 -28 43 13 95 27 115
31 38 6 38 6 -52 -80 -71 -68 -95 -85 -112 -81 -13 3 -23 1 -23 -5 0 -5 -4
-10 -10 -10 -5 0 -10 6 -10 13 0 7 -15 18 -33 25 -38 14 -67 16 -67 5 0 -8
-48 -33 -63 -33 -5 0 -22 -14 -37 -31 -23 -24 -26 -31 -14 -36 8 -3 13 -12 10
-20 -5 -11 -2 -11 17 -2 12 7 24 16 27 20 3 5 16 5 29 2 22 -6 22 -7 -10 -17
-19 -6 -33 -15 -32 -21 1 -5 -4 -17 -12 -25 -7 -8 -16 -25 -19 -37 -6 -18 -4
-22 7 -17 8 3 17 -2 21 -12 8 -20 -24 -58 -66 -80 -30 -16 -36 -38 -14 -51 39
-23 40 -82 1 -97 -8 -3 -15 -12 -15 -20 0 -20 -22 -26 -92 -26 -51 0 -61 3
-65 19 -5 20 -77 56 -93 46 -15 -9 -51 18 -71 55 -29 54 -43 74 -54 82 -5 4
-7 8 -2 8 4 0 1 15 -6 33 -8 17 -14 47 -15 66 0 19 -7 38 -15 43 -14 8 -77 98
-77 111 0 4 7 4 15 1 9 -4 15 0 15 10 0 9 -4 16 -10 16 -5 0 -10 9 -10 20 0
11 7 20 15 20 10 0 15 10 15 30 0 16 7 33 16 38 11 6 13 11 5 16 -13 9 -15 52
-2 60 5 4 12 0 14 -6 4 -10 6 -10 6 0 1 17 -69 108 -89 116 -8 4 -31 15 -50
26 -19 10 -47 19 -62 20 -28 0 -34 12 -22 44 5 13 13 12 57 -11 43 -22 68 -27
145 -30 51 -2 101 1 111 7 14 7 21 6 23 -2 2 -6 10 -9 18 -6 11 3 9 9 -6 24
-11 11 -18 26 -16 32 5 17 -27 15 -34 -2 -3 -8 -13 -12 -25 -9 -13 4 -19 0
-19 -11 0 -23 -15 -20 -17 4 -1 16 4 20 27 20 16 0 30 7 34 16 4 12 2 15 -9
10 -15 -5 -23 1 -50 39 -7 11 -17 16 -21 12 -5 -4 -4 -11 2 -15 22 -14 23 -41
3 -47 -10 -4 -24 -15 -30 -26 -13 -26 -28 -16 -21 16 3 20 0 25 -16 25 -11 0
-27 -7 -36 -15 -21 -22 -29 -18 -22 10 8 30 -3 32 -37 5 -14 -11 -33 -20 -42
-20 -36 0 -62 -43 -75 -129 -29 -189 20 -412 120 -541 14 -19 44 -63 65 -97
22 -37 45 -63 55 -63 9 0 26 -13 38 -29 12 -16 37 -34 55 -40 50 -17 56 -35
122 -366 30 -150 34 -187 33 -315 0 -80 -4 -152 -8 -160 -5 -8 -14 -35 -21
-60 -7 -25 -17 -48 -21 -51 -5 -3 -9 -26 -10 -51 -2 -33 -6 -44 -15 -41 -20 8
-15 -14 6 -29 31 -22 47 -64 31 -83 -9 -11 -10 -18 -1 -29 9 -11 5 -16 -20
-25 -40 -14 -39 -14 -39 7 0 9 -6 34 -14 55 -13 39 -24 37 -40 -7 -5 -14 -4
-16 6 -8 10 8 13 -8 12 -79 l-1 -89 38 -10 c42 -11 43 -14 40 -75 -2 -25 -9
-46 -22 -57 -24 -20 -24 -26 -2 -24 10 0 18 -6 18 -14 1 -24 26 -104 37 -117
12 -15 2 -33 -18 -33 -27 0 -14 -17 24 -29 28 -9 114 -10 151 -2 6 2 -43 38
-59 43 -19 6 47 43 71 40 11 -2 19 9 26 36 9 34 7 42 -13 65 -13 15 -30 27
-39 27 -17 0 -55 35 -55 51 0 5 10 3 22 -5 12 -9 35 -16 49 -16 43 0 133 -23
141 -36 4 -6 21 -17 38 -24 34 -14 38 -27 13 -45 -10 -8 -18 -28 -19 -50 0
-20 -7 -40 -14 -45 -9 -6 -8 -9 7 -14 14 -4 22 -22 31 -66 12 -56 11 -61 -8
-82 -16 -17 -23 -20 -29 -10 -4 7 -12 12 -17 11 -5 -2 -30 0 -56 5 -52 8 -108
47 -108 74 0 15 -2 15 -10 2 -8 -13 -11 -12 -23 4 -11 14 -18 16 -32 9 -10 -6
-26 -8 -36 -6 -10 3 -26 -2 -34 -11 -24 -23 -34 -20 -72 20 -31 34 -33 38 -18
54 12 14 13 19 3 22 -7 3 -17 5 -22 4 -5 0 -13 10 -18 23 -6 18 -4 27 8 36 12
8 14 18 9 36 l-8 24 -13 -30 c-7 -17 -13 -23 -14 -13 0 9 -5 18 -11 20 -7 2
-7 12 0 30 6 17 7 29 1 33 -6 4 -10 -3 -10 -15 0 -12 -4 -18 -10 -15 -5 3 -10
-4 -11 -17 -1 -22 -1 -21 -13 5 l-12 28 -12 -39 c-7 -22 -12 -48 -12 -59 0
-11 -7 -26 -15 -33 -14 -11 -14 -10 -7 11 5 13 12 49 16 80 4 31 13 65 20 75
19 26 9 51 -11 27 -14 -17 -14 -17 -9 0 3 10 -1 25 -9 33 -21 22 -19 32 15 66
37 37 37 46 3 59 -26 10 -27 12 -8 19 18 8 17 9 -7 9 -23 1 -28 -3 -28 -24 0
-22 -3 -25 -24 -19 -19 4 -24 1 -28 -20 -3 -14 -1 -27 5 -29 5 -1 11 -17 13
-34 4 -31 3 -32 -34 -29 -24 1 -38 7 -40 17 -2 11 -11 15 -28 11 -21 -4 -24
-9 -19 -26 11 -33 11 -91 0 -89 -6 1 -10 -26 -9 -65 0 -37 -3 -72 -7 -77 -4
-6 -9 -32 -11 -58 -2 -38 -6 -46 -20 -41 -9 2 -19 0 -23 -6 -4 -7 -12 -5 -21
5 -21 21 -29 19 -52 -10 -13 -16 -22 -21 -24 -13 -3 7 -21 12 -41 12 -28 0
-37 4 -37 17 0 10 -6 20 -12 22 -8 3 -6 6 5 6 9 1 17 8 17 17 0 8 -5 12 -10 9
-14 -9 -12 2 4 28 7 12 14 37 14 55 1 25 -3 32 -19 32 -29 0 -23 17 11 28 16
6 35 22 42 36 13 30 34 34 41 8 4 -14 6 -14 12 6 4 12 11 22 16 22 5 0 9 9 9
20 0 25 17 26 23 2 4 -13 5 -11 6 6 0 12 6 22 11 22 6 0 10 8 10 18 0 9 7 26
15 36 8 10 12 22 10 27 -11 17 17 20 30 3 13 -18 14 -18 20 -1 4 9 15 17 25
17 24 0 34 33 20 60 -16 29 -3 42 39 38 34 -3 36 -1 39 30 2 19 11 38 23 45
10 6 19 17 19 24 0 7 5 13 11 13 7 0 5 10 -5 25 -9 13 -16 38 -16 55 0 16 -4
30 -9 30 -4 0 -6 -11 -4 -24 4 -21 2 -24 -20 -22 -13 2 -35 13 -48 24 -12 12
-26 22 -31 22 -17 0 -7 22 12 27 11 3 20 9 20 13 0 5 -9 6 -20 3 -24 -6 -26 9
-5 27 10 9 15 9 15 1 0 -19 17 -12 49 20 17 17 31 26 31 20 0 -6 5 -11 10 -11
15 0 12 50 -2 50 -7 0 -5 5 5 11 10 6 25 8 33 5 10 -4 14 3 14 24 0 16 -5 32
-10 35 -8 5 -7 11 1 21 6 8 9 17 6 21 -4 3 1 12 11 19 14 10 15 15 5 25 -19
19 -16 29 7 29 24 0 38 26 22 42 -8 8 -7 17 3 32 18 29 8 76 -16 76 -13 0 -19
7 -20 23 0 12 -3 42 -5 66 -4 30 -2 42 7 39 6 -2 25 9 41 24 l30 28 -21 36
c-12 19 -21 50 -21 68 0 37 -25 65 -85 93 -28 13 -42 27 -48 49 -8 26 -14 30
-43 31 -30 1 -34 -2 -29 -18 4 -13 2 -19 -8 -19 -7 0 -19 -11 -25 -24 -8 -17
-17 -23 -30 -19 -14 3 -21 -2 -25 -16 -3 -13 -13 -21 -26 -21 -12 0 -21 -5
-21 -12 0 -6 -10 -2 -23 10 -32 30 -57 29 -57 -3 0 -14 -3 -25 -6 -25 -10 0
-34 28 -34 39 0 6 -10 11 -22 12 -21 1 -21 1 4 10 28 11 36 49 10 49 -9 0 -12
6 -8 15 3 9 -1 18 -10 22 -11 4 -15 17 -12 47 2 36 0 41 -20 44 -15 2 -22 -2
-22 -12 0 -9 -8 -16 -20 -16 -11 0 -20 -5 -20 -11 0 -7 -15 4 -33 24 -27 27
-39 34 -60 30 -32 -6 -26 -23 8 -23 21 0 24 -4 22 -34 -2 -19 -6 -38 -10 -42
-16 -16 -7 -44 15 -44 20 0 20 -1 4 -19 -15 -16 -15 -19 -1 -31 12 -10 13 -16
4 -26 -15 -18 -29 -18 -29 1 0 8 6 15 13 15 8 0 7 4 -3 10 -25 16 -40 11 -50
-16 -11 -27 -28 -25 -29 4 -1 9 -4 46 -7 82 -6 60 -5 64 11 49 25 -24 65 -13
65 18 0 23 -2 24 -40 18 l-40 -7 0 35 c0 20 5 37 12 39 7 3 8 10 4 17 -7 11
-10 11 -17 0 -6 -10 -9 -11 -9 -1 0 6 -11 12 -25 12 -13 0 -29 8 -35 18 -10
15 -11 14 -7 -5 3 -13 2 -25 -3 -28 -11 -7 -62 63 -55 75 7 12 -20 58 -43 76
-13 9 -11 12 10 17 20 5 27 15 32 42 4 22 13 35 22 35 26 0 9 25 -19 28 -24 3
-27 0 -27 -27 0 -17 -4 -31 -10 -31 -5 0 -7 7 -4 15 4 8 -1 27 -11 41 -13 20
-14 28 -4 40 6 8 7 14 2 14 -5 0 -10 14 -10 30 0 17 4 30 9 30 4 0 8 9 8 20 0
11 -4 20 -10 20 -5 0 -10 -7 -10 -15 0 -8 -4 -15 -10 -15 -13 0 -12 17 4 63 8
20 10 37 5 37 -5 0 -9 9 -9 20 0 11 -6 20 -13 20 -13 0 -30 35 -41 83 -4 15
-13 27 -21 27 -8 0 -15 6 -15 14 0 8 -9 22 -21 30 -12 8 -18 19 -15 24 11 18
16 103 6 97 -6 -3 -10 -1 -10 4 0 6 -7 11 -15 11 -19 0 -19 9 0 34 8 10 17 38
21 62 3 24 10 44 14 44 13 0 30 61 24 86 -4 15 -2 24 5 24 10 0 32 39 35 61 1
3 12 18 26 32 14 14 30 47 36 74 10 41 13 45 19 25 7 -22 8 -22 25 -5 9 10 20
31 24 46 3 15 11 27 16 27 6 0 10 7 10 15 0 21 20 19 21 -2 0 -16 1 -16 8 1 5
14 10 16 15 8 10 -17 29 -15 23 3 -4 8 -2 17 4 20 5 4 12 -1 15 -9 8 -20 34
-21 34 -2 0 10 19 16 60 21 33 4 60 10 60 14 0 4 7 16 16 27 8 10 12 12 8 4
-7 -12 -5 -13 8 -3 8 7 18 10 21 7 10 -11 28 45 22 69 -9 37 -11 187 -2 187 5
0 5 5 1 11 -4 8 0 9 15 4 13 -4 21 -2 21 5 0 8 8 10 21 7 12 -3 22 0 26 9 3 8
9 14 15 14 5 0 7 -4 4 -9 -3 -5 3 -20 15 -32 20 -24 21 -18 3 26 -4 10 0 15
10 15 10 0 16 -9 17 -22 1 -22 1 -22 9 2 6 18 9 4 10 -50 2 -57 4 -68 10 -45
4 17 8 54 9 83 1 41 4 52 17 52 14 0 14 -3 4 -15 -7 -9 -10 -18 -6 -22 3 -3 6
-2 6 3 0 5 9 10 20 11 11 1 20 -3 20 -10 0 -7 3 -8 10 -1 16 16 3 39 -28 52
l-27 11 28 -6 c16 -3 27 -1 27 6 0 6 -4 11 -10 11 -5 0 -10 7 -10 15 0 8 -4
15 -10 15 -5 0 -10 -7 -10 -16 0 -14 -2 -14 -16 -3 -14 12 -14 14 2 26 10 7
31 13 46 13 26 0 28 -2 17 -22 l-11 -23 20 20 c11 11 23 31 27 45 4 16 3 20
-3 12 -6 -9 -14 -6 -32 13 -13 14 -30 23 -38 20 -7 -3 -20 2 -28 10 -13 12 -4
15 68 18 81 3 81 3 -27 6 -67 2 -98 6 -80 10 20 4 30 12 29 24 -1 13 6 17 32
17 18 0 36 -5 40 -12 5 -8 10 -5 15 9 4 12 20 23 39 26 27 6 29 9 18 20 -7 8
-20 16 -28 19 -29 9 23 25 68 20 37 -4 41 -6 26 -17 -12 -8 -14 -14 -6 -19 7
-4 12 -2 12 4 0 7 7 10 15 7 8 -4 17 -2 20 3 4 6 15 10 26 10 24 0 25 18 2 36
-17 12 -16 13 6 14 16 0 21 4 18 15 -4 8 -2 17 3 20 5 3 7 20 5 38 -2 17 -1
26 2 20 2 -7 9 -13 14 -13 4 0 6 7 3 15 -4 9 3 16 20 21 21 5 24 9 15 20 -9
11 -8 14 4 14 20 0 36 21 43 56 5 25 -1 38 -31 74 -23 28 -34 49 -29 59 8 21
16 60 8 44 -3 -7 -10 -13 -16 -13 -12 0 -1 69 14 88 8 9 0 12 -33 13 -27 1
-34 4 -18 6 32 5 56 48 38 69 -6 8 -9 27 -6 43 4 19 1 33 -8 41 -11 10 -15 38
-15 116 0 68 -4 104 -11 104 -6 0 -9 14 -7 32 2 19 -2 33 -9 35 -10 4 -13 -28
-13 -136 0 -119 -3 -143 -16 -148 -11 -4 -13 -13 -9 -35 5 -21 2 -35 -11 -49
-16 -18 -16 -20 -1 -37 32 -35 22 -45 -35 -38 -29 3 -105 6 -168 7 -63 1 -108
3 -99 6 27 7 43 47 29 72 -6 12 -8 35 -5 52 5 22 3 31 -10 35 -15 6 -16 22
-11 140 l6 134 -25 0 -25 0 0 -131 c0 -104 -3 -134 -15 -146 -10 -9 -13 -23
-9 -35 3 -11 0 -31 -7 -45 -10 -19 -10 -28 -1 -43 17 -28 15 -40 -8 -40 -17 0
-20 7 -22 53 l-1 52 -6 -50 -6 -50 -8 43 c-4 23 -4 61 -1 84 5 29 4 39 -4 34
-8 -5 -12 32 -14 131 l-3 138 -1297 3 -1298 2 0 -3200z m4521 2650 c6 0 7 -5
3 -11 -10 -17 17 -163 33 -172 7 -4 13 -13 13 -18 0 -6 -5 -7 -12 -3 -8 5 -9
0 -5 -15 4 -18 2 -21 -15 -15 -18 5 -20 3 -15 -14 3 -12 -1 -26 -9 -33 -17
-14 -9 -31 13 -27 8 2 19 -4 23 -12 21 -38 40 -124 40 -177 -1 -74 -24 -196
-39 -201 -6 -2 -11 -10 -11 -18 0 -8 -8 -14 -17 -14 -15 0 -16 -2 -3 -10 10
-6 11 -10 3 -10 -7 0 -13 -4 -13 -9 0 -5 -8 -26 -17 -47 -16 -38 -18 -45 -21
-71 -4 -25 -37 -13 -51 19 -20 44 -75 103 -111 118 -16 7 -32 20 -35 29 -14
43 -42 63 -89 67 -75 5 -107 43 -80 95 9 18 13 41 10 55 -4 16 0 30 15 45 17
17 20 28 14 56 -4 25 -10 33 -21 29 -23 -9 -64 4 -64 20 0 8 9 23 21 35 11 11
25 34 31 51 l11 30 20 -20 c14 -14 23 -44 30 -101 10 -74 13 -81 34 -81 12 0
25 -5 28 -11 4 -5 18 -14 32 -20 13 -5 23 -15 20 -22 -8 -22 21 -44 53 -39 16
2 27 9 24 14 -4 6 8 7 29 3 21 -4 37 -3 41 4 4 6 18 11 31 11 39 0 19 36 -33
58 l-47 20 36 1 c25 1 44 -6 63 -24 15 -14 29 -25 32 -25 2 0 4 18 4 40 0 27
-4 40 -13 40 -8 0 -29 8 -48 17 -40 20 -219 22 -219 2 0 -5 -7 -9 -15 -9 -8 0
-15 -5 -15 -12 0 -30 -19 12 -25 55 -6 43 -5 47 14 47 12 0 21 -4 21 -8 0 -10
39 -8 63 2 9 5 17 17 17 27 0 10 3 18 8 18 17 -3 32 2 32 10 0 5 -8 7 -19 4
-10 -2 -25 2 -33 11 -9 8 -24 13 -34 10 -21 -5 -78 19 -68 29 3 3 -4 10 -15
17 -12 6 -19 16 -15 21 4 6 15 4 31 -6 36 -24 38 -13 3 20 -36 34 -38 45 -8
37 22 -5 22 -5 6 20 -18 27 -15 36 22 57 24 14 24 13 10 -5 -8 -10 -19 -22
-25 -26 -19 -14 5 -20 32 -9 15 6 50 13 77 15 27 2 52 9 57 17 7 11 9 8 9 -8
0 -13 5 -23 11 -23 5 0 8 4 5 8 -3 5 -1 22 4 38 4 16 9 21 9 12 1 -10 5 -18
10 -18 5 0 14 -12 19 -27 7 -18 11 -22 11 -10 1 21 9 22 32 1 13 -12 16 -21 9
-33 -5 -11 -5 -23 1 -32 9 -12 10 -12 6 1 -2 8 0 23 5 33 5 11 10 40 10 65 1
26 3 39 5 30 3 -10 9 -18 14 -18z m-522 -476 c-11 -14 -11 -18 4 -29 21 -15
22 -29 2 -45 -9 -7 -13 -15 -10 -18 3 -3 16 5 30 18 14 13 25 19 26 14 0 -5 2
-18 4 -29 2 -10 0 -24 -4 -30 -7 -9 -22 -62 -35 -126 -7 -31 -69 -68 -74 -44
-2 8 -10 11 -19 8 -13 -5 -14 -3 -4 15 7 12 9 22 7 22 -3 0 -1 11 4 25 11 29
-4 35 -19 8 -9 -17 -11 -16 -26 4 -8 12 -23 30 -32 39 -9 9 -18 30 -19 46 -2
23 1 28 16 23 9 -3 23 1 30 10 7 8 19 15 27 15 8 0 11 5 7 13 -4 6 -4 9 0 5
15 -13 66 13 66 33 0 11 6 26 13 33 17 19 23 10 6 -10z m305 -1375 c38 -9 46
-16 61 -52 33 -79 35 -87 25 -87 -6 0 -10 4 -10 10 0 23 -45 60 -72 60 -38 0
-35 -12 11 -60 l39 -40 84 0 c106 0 243 -17 277 -34 14 -8 34 -23 45 -34 18
-20 18 -22 -4 -52 -15 -22 -20 -38 -15 -59 8 -36 -15 -47 -55 -26 -34 17 -70
20 -70 4 0 -6 -9 -8 -20 -4 -14 4 -20 2 -20 -9 0 -12 -10 -15 -49 -12 -44 3
-48 2 -43 -17 4 -14 2 -18 -7 -12 -10 5 -11 2 -6 -14 5 -17 2 -21 -16 -21 -43
0 -99 33 -106 63 -3 15 -11 27 -19 27 -7 0 -17 7 -22 16 -5 9 -14 14 -21 10
-20 -13 -12 -34 17 -44 24 -9 25 -11 5 -11 -12 -1 -31 9 -43 21 -11 12 -26 23
-33 24 -101 22 -134 35 -159 64 -14 18 -24 38 -22 45 3 7 1 16 -5 20 -6 3 -11
20 -11 36 0 22 4 29 16 27 10 -2 18 5 20 17 2 11 23 39 48 63 26 24 46 50 46
58 0 30 63 41 134 23z m226 -505 c0 -3 -4 -14 -10 -24 -6 -12 -6 -28 1 -49 11
-30 29 -43 29 -20 0 8 5 8 15 -1 9 -7 27 -10 45 -6 17 3 30 1 30 -4 0 -16 20
-12 51 11 16 11 29 16 29 10 0 -20 20 -11 29 13 10 26 37 41 47 25 4 -7 10 -6
18 0 15 13 26 4 26 -21 0 -18 15 -22 72 -18 26 1 27 -1 22 -29 -5 -22 -3 -31
7 -32 66 -6 116 -6 124 1 15 12 62 0 81 -21 16 -18 16 -20 -14 -49 -18 -16
-37 -30 -43 -30 -7 0 -17 -7 -23 -15 -15 -20 -101 -35 -200 -35 -78 0 -139 13
-167 37 -8 6 -25 14 -39 18 -14 4 -41 19 -59 33 -25 19 -48 26 -80 26 -28 1
-51 7 -58 16 -11 13 -14 13 -22 0 -11 -17 -13 -16 -28 28 -9 27 -9 34 2 38 7
3 11 14 8 25 -4 12 0 19 10 19 8 0 17 9 20 20 6 24 77 56 77 34z m-1037 -1126
c18 2 27 -1 27 -11 0 -10 7 -13 18 -10 10 2 30 -1 45 -6 23 -9 27 -15 22 -34
-4 -14 -3 -18 3 -9 7 10 11 10 21 -1 15 -19 -3 -72 -21 -61 -6 4 0 -8 15 -28
29 -37 33 -63 18 -116 -7 -22 -6 -32 2 -32 8 0 8 -3 -1 -12 -19 -19 -14 -31
13 -26 31 6 32 -4 1 -37 -15 -16 -24 -37 -23 -53 2 -24 -2 -27 -36 -30 -23 -2
-46 2 -55 11 -10 8 -25 17 -34 20 -10 4 -18 16 -18 27 0 29 -29 82 -40 75 -6
-4 -10 -1 -10 4 0 6 9 11 20 11 16 0 20 7 20 35 0 19 -5 35 -11 35 -7 0 -9 10
-7 25 4 17 1 25 -9 25 -11 0 -30 8 -62 27 -2 2 4 12 13 22 17 18 17 20 -1 29
-10 6 -27 25 -37 44 -15 24 -16 30 -4 20 13 -10 16 -9 21 7 2 11 0 24 -6 30
-7 7 -7 14 -1 20 14 14 68 18 79 6 6 -5 22 -9 38 -7z m130 -975 c22 -11 32
-12 43 -2 11 9 14 7 14 -10 0 -11 -6 -21 -12 -22 -10 0 -10 -2 0 -6 6 -2 12
-11 12 -19 0 -8 5 -14 10 -14 6 0 15 -11 20 -25 5 -14 14 -25 20 -25 5 0 10
-6 10 -14 0 -8 6 -16 13 -19 9 -3 7 -10 -6 -25 -13 -14 -15 -21 -6 -24 9 -3 9
-9 1 -23 -5 -11 -8 -35 -6 -52 2 -20 -1 -33 -7 -33 -6 0 -9 -6 -6 -13 3 -9
-13 -22 -49 -38 -46 -21 -54 -28 -54 -51 0 -16 -4 -28 -10 -28 -5 0 -9 -12 -9
-27 2 -45 -6 -80 -24 -107 -10 -14 -13 -26 -7 -26 23 0 8 -21 -19 -26 -23 -5
-28 -11 -27 -32 1 -14 -4 -27 -10 -29 -13 -4 -24 28 -24 69 0 22 -6 29 -27 33
-16 3 -45 11 -66 17 -33 10 -36 13 -19 19 11 4 24 18 28 31 4 13 18 33 31 46
30 28 25 47 -13 48 -64 1 -73 4 -88 34 -14 29 -13 32 7 51 15 14 29 18 49 14
32 -7 32 -6 17 29 -8 16 -23 26 -45 31 -42 7 -35 25 9 25 l31 0 -32 29 c-17
16 -39 31 -48 33 -30 6 -28 28 2 28 l28 0 -33 30 c-28 26 -38 30 -67 24 -19
-3 -34 -4 -34 -1 0 21 16 37 36 37 13 0 24 5 24 10 0 6 -7 10 -17 10 -9 0 -13
3 -10 6 3 4 2 15 -4 25 -13 25 8 26 27 2 13 -17 14 -17 8 0 -8 23 5 22 76 -8
33 -14 70 -25 82 -24 13 0 17 3 11 6 -7 2 -13 11 -13 19 0 10 6 11 26 4 16 -6
32 -7 42 -1 15 8 13 11 -10 20 -16 6 -28 13 -28 16 0 11 124 -7 153 -22z
m1290 -73 c18 0 27 -5 27 -16 0 -11 6 -14 23 -9 18 6 20 5 10 -6 -7 -7 -13
-24 -13 -36 0 -20 5 -23 26 -21 16 2 29 -3 32 -11 3 -10 0 -12 -13 -7 -12 4
-22 0 -32 -14 -11 -15 -21 -18 -40 -14 -18 5 -24 3 -19 -5 4 -7 -4 -15 -21
-21 -15 -6 -41 -17 -57 -26 -24 -14 -30 -14 -37 -3 -7 12 -9 11 -9 -1 0 -22
-32 -39 -63 -33 -27 5 -38 23 -14 23 7 0 8 3 2 8 -5 4 -16 14 -23 23 -11 14
-9 17 14 22 21 4 25 1 21 -14 -3 -10 1 -23 9 -30 11 -9 14 -8 14 4 0 8 7 17
15 21 26 10 18 60 -15 91 -29 28 -30 28 -30 6 0 -29 -25 -23 -26 6 -1 25 53
54 104 55 18 1 35 5 38 10 4 6 16 7 28 4 11 -3 33 -6 49 -6z m184 -287 c-4 -3
0 -17 8 -30 9 -13 13 -28 10 -33 -3 -5 -1 -11 4 -15 6 -3 8 -12 4 -20 -3 -8 0
-15 6 -15 6 0 11 7 11 15 0 8 5 15 11 15 6 0 8 -9 4 -22 -11 -35 -21 -41 -44
-28 -26 13 -62 4 -55 -14 4 -10 -2 -12 -20 -9 -16 3 -26 1 -26 -6 0 -6 7 -11
15 -11 8 0 15 -4 15 -9 0 -5 -28 -9 -62 -9 -35 0 -91 -3 -125 -6 -53 -5 -63
-4 -63 9 0 25 4 28 40 31 60 4 103 16 147 40 49 28 57 29 49 9 -3 -8 -1 -15 5
-15 7 0 9 12 5 33 -4 26 -1 37 19 56 14 13 25 27 25 32 0 5 5 9 12 9 6 0 8 -3
5 -7z"/>
<path d="M5960 6385 c7 -8 18 -15 26 -15 7 0 16 -9 19 -20 4 -12 15 -20 29
-20 20 0 41 -15 106 -74 43 -39 95 -107 105 -137 8 -23 19 -35 33 -37 14 -2
22 -11 22 -22 0 -10 5 -22 10 -25 6 -3 10 -23 10 -44 0 -20 5 -42 12 -49 6 -6
11 -26 10 -43 -1 -43 16 -78 29 -58 7 11 9 9 9 -8 0 -12 5 -25 10 -28 7 -4 10
97 10 294 l0 301 -226 0 c-200 0 -225 -2 -214 -15z"/>
<path d="M5265 3880 c-3 -4 1 -11 7 -13 7 -3 3 -6 -9 -6 -27 -1 -38 -17 -17
-25 10 -4 13 -13 9 -26 -4 -11 -2 -20 4 -20 6 0 11 -7 11 -15 0 -15 17 -20 54
-17 12 2 16 -3 13 -12 -4 -10 -1 -13 9 -9 7 3 14 10 15 17 0 6 4 1 9 -11 13
-31 50 -31 50 0 0 28 -60 93 -82 89 -11 -2 -18 5 -20 19 -3 23 -43 45 -53 29z"/>
</g>
</svg>
